<?xml version="1.0" encoding="utf-8" standalone="no"?>
<!DOCTYPE svg PUBLIC "-//W3C//DTD SVG 1.1//EN"
  "http://www.w3.org/Graphics/SVG/1.1/DTD/svg11.dtd">
<svg xmlns:xlink="http://www.w3.org/1999/xlink" width="797.981375pt" height="513.36pt" viewBox="0 0 797.981375 513.36" xmlns="http://www.w3.org/2000/svg" version="1.1">
 <metadata>
  <rdf:RDF xmlns:dc="http://purl.org/dc/elements/1.1/" xmlns:cc="http://creativecommons.org/ns#" xmlns:rdf="http://www.w3.org/1999/02/22-rdf-syntax-ns#">
   <cc:Work>
    <dc:type rdf:resource="http://purl.org/dc/dcmitype/StillImage"/>
    <dc:date>2026-02-06T04:22:00.856541</dc:date>
    <dc:format>image/svg+xml</dc:format>
    <dc:creator>
     <cc:Agent>
      <dc:title>Matplotlib v3.7.5, https://matplotlib.org/</dc:title>
     </cc:Agent>
    </dc:creator>
   </cc:Work>
  </rdf:RDF>
 </metadata>
 <defs>
  <style type="text/css">*{stroke-linejoin: round; stroke-linecap: butt}</style>
 </defs>
 <g id="figure_1">
  <g id="patch_1">
   <path d="M 0 513.36 
L 797.981375 513.36 
L 797.981375 -0 
L 0 -0 
z
" style="fill: #ffffff"/>
  </g>
  <g id="axes_1">
   <g id="patch_2">
    <path d="M 46.26 146.9088 
L 319.68 146.9088 
L 319.68 37.1376 
L 46.26 37.1376 
L 46.26 146.9088 
z
" clip-path="url(#pd59f5a033a)" style="fill: none; stroke: #000000; stroke-linejoin: miter"/>
   </g>
   <g id="patch_3">
    <path d="M 46.26 306.576 
L 319.68 306.576 
L 319.68 166.8672 
L 46.26 166.8672 
L 46.26 306.576 
z
" clip-path="url(#pd59f5a033a)" style="fill: none; stroke: #000000; stroke-linejoin: miter"/>
   </g>
   <g id="patch_4">
    <path d="M 335.304 306.576 
L 608.724 306.576 
L 608.724 166.8672 
L 335.304 166.8672 
L 335.304 306.576 
z
" clip-path="url(#pd59f5a033a)" style="fill: none; stroke: #000000; stroke-linejoin: miter"/>
   </g>
   <g id="patch_5">
    <path d="M 335.304 466.2432 
L 608.724 466.2432 
L 608.724 336.5136 
L 335.304 336.5136 
L 335.304 466.2432 
z
" clip-path="url(#pd59f5a033a)" style="fill: none; stroke: #000000; stroke-linejoin: miter"/>
   </g>
   <g id="patch_6">
    <path d="M 624.348 306.576 
L 764.964 306.576 
L 764.964 196.8048 
L 624.348 196.8048 
L 624.348 306.576 
z
" clip-path="url(#pd59f5a033a)" style="fill: none; stroke: #000000; stroke-linejoin: miter"/>
   </g>
   <g id="patch_7">
    <path d="M 182.97 148.911462 
Q 182.97 156.88765 182.97 163.745804 
" clip-path="url(#pd59f5a033a)" style="fill: none; stroke: #000000; stroke-linecap: round"/>
    <path d="M 185.77 158.145804 
L 182.97 163.745804 
L 180.17 158.145804 
z
" clip-path="url(#pd59f5a033a)" style="fill: #1f77b4; stroke: #000000; stroke-linecap: round"/>
   </g>
   <g id="patch_8">
    <path d="M 472.014 148.911462 
Q 472.014 156.88765 472.014 163.745804 
" clip-path="url(#pd59f5a033a)" style="fill: none; stroke: #000000; stroke-linecap: round"/>
    <path d="M 474.814 158.145804 
L 472.014 163.745804 
L 469.214 158.145804 
z
" clip-path="url(#pd59f5a033a)" style="fill: #1f77b4; stroke: #000000; stroke-linecap: round"/>
   </g>
   <g id="patch_9">
    <path d="M 472.014 308.575007 
Q 472.014 321.54333 472.014 333.393619 
" clip-path="url(#pd59f5a033a)" style="fill: none; stroke: #000000; stroke-linecap: round"/>
    <path d="M 474.814 327.793619 
L 472.014 333.393619 
L 469.214 327.793619 
z
" clip-path="url(#pd59f5a033a)" style="fill: #1f77b4; stroke: #000000; stroke-linecap: round"/>
   </g>
   <g id="patch_10">
    <path d="M 694.656 148.909634 
Q 694.656 171.855991 694.656 193.684313 
" clip-path="url(#pd59f5a033a)" style="fill: none; stroke: #000000; stroke-linecap: round"/>
    <path d="M 697.456 188.084313 
L 694.656 193.684313 
L 691.856 188.084313 
z
" clip-path="url(#pd59f5a033a)" style="fill: #1f77b4; stroke: #000000; stroke-linecap: round"/>
   </g>
   <g id="patch_11">
    <path d="M 321.682588 236.7216 
Q 327.493969 236.7216 332.187316 236.7216 
" clip-path="url(#pd59f5a033a)" style="fill: none; stroke: #000000; stroke-linecap: round"/>
    <path d="M 327.387316 234.3216 
L 332.187316 236.7216 
L 327.387316 239.1216 
z
" clip-path="url(#pd59f5a033a)" style="fill: #1f77b4; stroke: #000000; stroke-linecap: round"/>
   </g>
   <g id="patch_12">
    <path d="M 472.014 308.575007 
Q 472.014 321.54333 472.014 333.393619 
" clip-path="url(#pd59f5a033a)" style="fill: none; stroke: #000000; stroke-linecap: round"/>
    <path d="M 474.414 328.593619 
L 472.014 333.393619 
L 469.614 328.593619 
z
" clip-path="url(#pd59f5a033a)" style="fill: #1f77b4; stroke: #000000; stroke-linecap: round"/>
   </g>
   <g id="patch_13">
    <path d="M 184.594778 307.746808 
Q 259.138766 361.462873 332.775687 414.525309 
" clip-path="url(#pd59f5a033a)" style="fill: none; stroke: #000000; stroke-linecap: round"/>
    <path d="M 330.284517 409.771987 
L 332.775687 414.525309 
L 327.478327 413.666251 
z
" clip-path="url(#pd59f5a033a)" style="fill: #1f77b4; stroke: #000000; stroke-linecap: round"/>
   </g>
   <g id="patch_14">
    <path d="M 610.726588 246.7008 
Q 616.537969 246.7008 621.231316 246.7008 
" clip-path="url(#pd59f5a033a)" style="fill: none; stroke: #000000; stroke-linecap: round"/>
    <path d="M 616.431316 244.3008 
L 621.231316 246.7008 
L 616.431316 249.1008 
z
" clip-path="url(#pd59f5a033a)" style="fill: #1f77b4; stroke: #000000; stroke-linecap: round"/>
   </g>
   <g id="text_1">
    <!-- BaseEntity -->
    <g transform="translate(143.605391 66.973969) scale(0.13 -0.13)">
     <defs>
      <path id="DejaVuSans-Bold-42" d="M 2456 2859 
Q 2741 2859 2887 2984 
Q 3034 3109 3034 3353 
Q 3034 3594 2887 3720 
Q 2741 3847 2456 3847 
L 1791 3847 
L 1791 2859 
L 2456 2859 
z
M 2497 819 
Q 2859 819 3042 972 
Q 3225 1125 3225 1434 
Q 3225 1738 3044 1889 
Q 2863 2041 2497 2041 
L 1791 2041 
L 1791 819 
L 2497 819 
z
M 3616 2497 
Q 4003 2384 4215 2081 
Q 4428 1778 4428 1338 
Q 4428 663 3972 331 
Q 3516 0 2584 0 
L 588 0 
L 588 4666 
L 2394 4666 
Q 3366 4666 3802 4372 
Q 4238 4078 4238 3431 
Q 4238 3091 4078 2852 
Q 3919 2613 3616 2497 
z
" transform="scale(0.015625)"/>
      <path id="DejaVuSans-Bold-61" d="M 2106 1575 
Q 1756 1575 1579 1456 
Q 1403 1338 1403 1106 
Q 1403 894 1545 773 
Q 1688 653 1941 653 
Q 2256 653 2472 879 
Q 2688 1106 2688 1447 
L 2688 1575 
L 2106 1575 
z
M 3816 1997 
L 3816 0 
L 2688 0 
L 2688 519 
Q 2463 200 2181 54 
Q 1900 -91 1497 -91 
Q 953 -91 614 226 
Q 275 544 275 1050 
Q 275 1666 698 1953 
Q 1122 2241 2028 2241 
L 2688 2241 
L 2688 2328 
Q 2688 2594 2478 2717 
Q 2269 2841 1825 2841 
Q 1466 2841 1156 2769 
Q 847 2697 581 2553 
L 581 3406 
Q 941 3494 1303 3539 
Q 1666 3584 2028 3584 
Q 2975 3584 3395 3211 
Q 3816 2838 3816 1997 
z
" transform="scale(0.015625)"/>
      <path id="DejaVuSans-Bold-73" d="M 3272 3391 
L 3272 2541 
Q 2913 2691 2578 2766 
Q 2244 2841 1947 2841 
Q 1628 2841 1473 2761 
Q 1319 2681 1319 2516 
Q 1319 2381 1436 2309 
Q 1553 2238 1856 2203 
L 2053 2175 
Q 2913 2066 3209 1816 
Q 3506 1566 3506 1031 
Q 3506 472 3093 190 
Q 2681 -91 1863 -91 
Q 1516 -91 1145 -36 
Q 775 19 384 128 
L 384 978 
Q 719 816 1070 734 
Q 1422 653 1784 653 
Q 2113 653 2278 743 
Q 2444 834 2444 1013 
Q 2444 1163 2330 1236 
Q 2216 1309 1875 1350 
L 1678 1375 
Q 931 1469 631 1722 
Q 331 1975 331 2491 
Q 331 3047 712 3315 
Q 1094 3584 1881 3584 
Q 2191 3584 2531 3537 
Q 2872 3491 3272 3391 
z
" transform="scale(0.015625)"/>
      <path id="DejaVuSans-Bold-65" d="M 4031 1759 
L 4031 1441 
L 1416 1441 
Q 1456 1047 1700 850 
Q 1944 653 2381 653 
Q 2734 653 3104 758 
Q 3475 863 3866 1075 
L 3866 213 
Q 3469 63 3072 -14 
Q 2675 -91 2278 -91 
Q 1328 -91 801 392 
Q 275 875 275 1747 
Q 275 2603 792 3093 
Q 1309 3584 2216 3584 
Q 3041 3584 3536 3087 
Q 4031 2591 4031 1759 
z
M 2881 2131 
Q 2881 2450 2695 2645 
Q 2509 2841 2209 2841 
Q 1884 2841 1681 2658 
Q 1478 2475 1428 2131 
L 2881 2131 
z
" transform="scale(0.015625)"/>
      <path id="DejaVuSans-Bold-45" d="M 588 4666 
L 3834 4666 
L 3834 3756 
L 1791 3756 
L 1791 2888 
L 3713 2888 
L 3713 1978 
L 1791 1978 
L 1791 909 
L 3903 909 
L 3903 0 
L 588 0 
L 588 4666 
z
" transform="scale(0.015625)"/>
      <path id="DejaVuSans-Bold-6e" d="M 4056 2131 
L 4056 0 
L 2931 0 
L 2931 347 
L 2931 1631 
Q 2931 2084 2911 2256 
Q 2891 2428 2841 2509 
Q 2775 2619 2662 2680 
Q 2550 2741 2406 2741 
Q 2056 2741 1856 2470 
Q 1656 2200 1656 1722 
L 1656 0 
L 538 0 
L 538 3500 
L 1656 3500 
L 1656 2988 
Q 1909 3294 2193 3439 
Q 2478 3584 2822 3584 
Q 3428 3584 3742 3212 
Q 4056 2841 4056 2131 
z
" transform="scale(0.015625)"/>
      <path id="DejaVuSans-Bold-74" d="M 1759 4494 
L 1759 3500 
L 2913 3500 
L 2913 2700 
L 1759 2700 
L 1759 1216 
Q 1759 972 1856 886 
Q 1953 800 2241 800 
L 2816 800 
L 2816 0 
L 1856 0 
Q 1194 0 917 276 
Q 641 553 641 1216 
L 641 2700 
L 84 2700 
L 84 3500 
L 641 3500 
L 641 4494 
L 1759 4494 
z
" transform="scale(0.015625)"/>
      <path id="DejaVuSans-Bold-69" d="M 538 3500 
L 1656 3500 
L 1656 0 
L 538 0 
L 538 3500 
z
M 538 4863 
L 1656 4863 
L 1656 3950 
L 538 3950 
L 538 4863 
z
" transform="scale(0.015625)"/>
      <path id="DejaVuSans-Bold-79" d="M 78 3500 
L 1197 3500 
L 2138 1125 
L 2938 3500 
L 4056 3500 
L 2584 -331 
Q 2363 -916 2067 -1148 
Q 1772 -1381 1288 -1381 
L 641 -1381 
L 641 -647 
L 991 -647 
Q 1275 -647 1404 -556 
Q 1534 -466 1606 -231 
L 1638 -134 
L 78 3500 
z
" transform="scale(0.015625)"/>
     </defs>
     <use xlink:href="#DejaVuSans-Bold-42"/>
     <use xlink:href="#DejaVuSans-Bold-61" x="76.220703"/>
     <use xlink:href="#DejaVuSans-Bold-73" x="143.701172"/>
     <use xlink:href="#DejaVuSans-Bold-65" x="203.222656"/>
     <use xlink:href="#DejaVuSans-Bold-45" x="271.044922"/>
     <use xlink:href="#DejaVuSans-Bold-6e" x="339.355469"/>
     <use xlink:href="#DejaVuSans-Bold-74" x="410.546875"/>
     <use xlink:href="#DejaVuSans-Bold-69" x="458.349609"/>
     <use xlink:href="#DejaVuSans-Bold-74" x="492.626953"/>
     <use xlink:href="#DejaVuSans-Bold-79" x="540.429688"/>
    </g>
   </g>
   <g id="text_2">
    <!-- + id: UUID -->
    <g transform="translate(61.884 89.642437) scale(0.1 -0.1)">
     <defs>
      <path id="DejaVuSans-2b" d="M 2944 4013 
L 2944 2272 
L 4684 2272 
L 4684 1741 
L 2944 1741 
L 2944 0 
L 2419 0 
L 2419 1741 
L 678 1741 
L 678 2272 
L 2419 2272 
L 2419 4013 
L 2944 4013 
z
" transform="scale(0.015625)"/>
      <path id="DejaVuSans-20" transform="scale(0.015625)"/>
      <path id="DejaVuSans-69" d="M 603 3500 
L 1178 3500 
L 1178 0 
L 603 0 
L 603 3500 
z
M 603 4863 
L 1178 4863 
L 1178 4134 
L 603 4134 
L 603 4863 
z
" transform="scale(0.015625)"/>
      <path id="DejaVuSans-64" d="M 2906 2969 
L 2906 4863 
L 3481 4863 
L 3481 0 
L 2906 0 
L 2906 525 
Q 2725 213 2448 61 
Q 2172 -91 1784 -91 
Q 1150 -91 751 415 
Q 353 922 353 1747 
Q 353 2572 751 3078 
Q 1150 3584 1784 3584 
Q 2172 3584 2448 3432 
Q 2725 3281 2906 2969 
z
M 947 1747 
Q 947 1113 1208 752 
Q 1469 391 1925 391 
Q 2381 391 2643 752 
Q 2906 1113 2906 1747 
Q 2906 2381 2643 2742 
Q 2381 3103 1925 3103 
Q 1469 3103 1208 2742 
Q 947 2381 947 1747 
z
" transform="scale(0.015625)"/>
      <path id="DejaVuSans-3a" d="M 750 794 
L 1409 794 
L 1409 0 
L 750 0 
L 750 794 
z
M 750 3309 
L 1409 3309 
L 1409 2516 
L 750 2516 
L 750 3309 
z
" transform="scale(0.015625)"/>
      <path id="DejaVuSans-55" d="M 556 4666 
L 1191 4666 
L 1191 1831 
Q 1191 1081 1462 751 
Q 1734 422 2344 422 
Q 2950 422 3222 751 
Q 3494 1081 3494 1831 
L 3494 4666 
L 4128 4666 
L 4128 1753 
Q 4128 841 3676 375 
Q 3225 -91 2344 -91 
Q 1459 -91 1007 375 
Q 556 841 556 1753 
L 556 4666 
z
" transform="scale(0.015625)"/>
      <path id="DejaVuSans-49" d="M 628 4666 
L 1259 4666 
L 1259 0 
L 628 0 
L 628 4666 
z
" transform="scale(0.015625)"/>
      <path id="DejaVuSans-44" d="M 1259 4147 
L 1259 519 
L 2022 519 
Q 2988 519 3436 956 
Q 3884 1394 3884 2338 
Q 3884 3275 3436 3711 
Q 2988 4147 2022 4147 
L 1259 4147 
z
M 628 4666 
L 1925 4666 
Q 3281 4666 3915 4102 
Q 4550 3538 4550 2338 
Q 4550 1131 3912 565 
Q 3275 0 1925 0 
L 628 0 
L 628 4666 
z
" transform="scale(0.015625)"/>
     </defs>
     <use xlink:href="#DejaVuSans-2b"/>
     <use xlink:href="#DejaVuSans-20" x="83.789062"/>
     <use xlink:href="#DejaVuSans-69" x="115.576172"/>
     <use xlink:href="#DejaVuSans-64" x="143.359375"/>
     <use xlink:href="#DejaVuSans-3a" x="206.835938"/>
     <use xlink:href="#DejaVuSans-20" x="240.527344"/>
     <use xlink:href="#DejaVuSans-55" x="272.314453"/>
     <use xlink:href="#DejaVuSans-55" x="345.507812"/>
     <use xlink:href="#DejaVuSans-49" x="418.701172"/>
     <use xlink:href="#DejaVuSans-44" x="448.193359"/>
    </g>
    <!-- + created_at: datetime -->
    <g transform="translate(61.884 100.84025) scale(0.1 -0.1)">
     <defs>
      <path id="DejaVuSans-63" d="M 3122 3366 
L 3122 2828 
Q 2878 2963 2633 3030 
Q 2388 3097 2138 3097 
Q 1578 3097 1268 2742 
Q 959 2388 959 1747 
Q 959 1106 1268 751 
Q 1578 397 2138 397 
Q 2388 397 2633 464 
Q 2878 531 3122 666 
L 3122 134 
Q 2881 22 2623 -34 
Q 2366 -91 2075 -91 
Q 1284 -91 818 406 
Q 353 903 353 1747 
Q 353 2603 823 3093 
Q 1294 3584 2113 3584 
Q 2378 3584 2631 3529 
Q 2884 3475 3122 3366 
z
" transform="scale(0.015625)"/>
      <path id="DejaVuSans-72" d="M 2631 2963 
Q 2534 3019 2420 3045 
Q 2306 3072 2169 3072 
Q 1681 3072 1420 2755 
Q 1159 2438 1159 1844 
L 1159 0 
L 581 0 
L 581 3500 
L 1159 3500 
L 1159 2956 
Q 1341 3275 1631 3429 
Q 1922 3584 2338 3584 
Q 2397 3584 2469 3576 
Q 2541 3569 2628 3553 
L 2631 2963 
z
" transform="scale(0.015625)"/>
      <path id="DejaVuSans-65" d="M 3597 1894 
L 3597 1613 
L 953 1613 
Q 991 1019 1311 708 
Q 1631 397 2203 397 
Q 2534 397 2845 478 
Q 3156 559 3463 722 
L 3463 178 
Q 3153 47 2828 -22 
Q 2503 -91 2169 -91 
Q 1331 -91 842 396 
Q 353 884 353 1716 
Q 353 2575 817 3079 
Q 1281 3584 2069 3584 
Q 2775 3584 3186 3129 
Q 3597 2675 3597 1894 
z
M 3022 2063 
Q 3016 2534 2758 2815 
Q 2500 3097 2075 3097 
Q 1594 3097 1305 2825 
Q 1016 2553 972 2059 
L 3022 2063 
z
" transform="scale(0.015625)"/>
      <path id="DejaVuSans-61" d="M 2194 1759 
Q 1497 1759 1228 1600 
Q 959 1441 959 1056 
Q 959 750 1161 570 
Q 1363 391 1709 391 
Q 2188 391 2477 730 
Q 2766 1069 2766 1631 
L 2766 1759 
L 2194 1759 
z
M 3341 1997 
L 3341 0 
L 2766 0 
L 2766 531 
Q 2569 213 2275 61 
Q 1981 -91 1556 -91 
Q 1019 -91 701 211 
Q 384 513 384 1019 
Q 384 1609 779 1909 
Q 1175 2209 1959 2209 
L 2766 2209 
L 2766 2266 
Q 2766 2663 2505 2880 
Q 2244 3097 1772 3097 
Q 1472 3097 1187 3025 
Q 903 2953 641 2809 
L 641 3341 
Q 956 3463 1253 3523 
Q 1550 3584 1831 3584 
Q 2591 3584 2966 3190 
Q 3341 2797 3341 1997 
z
" transform="scale(0.015625)"/>
      <path id="DejaVuSans-74" d="M 1172 4494 
L 1172 3500 
L 2356 3500 
L 2356 3053 
L 1172 3053 
L 1172 1153 
Q 1172 725 1289 603 
Q 1406 481 1766 481 
L 2356 481 
L 2356 0 
L 1766 0 
Q 1100 0 847 248 
Q 594 497 594 1153 
L 594 3053 
L 172 3053 
L 172 3500 
L 594 3500 
L 594 4494 
L 1172 4494 
z
" transform="scale(0.015625)"/>
      <path id="DejaVuSans-5f" d="M 3263 -1063 
L 3263 -1509 
L -63 -1509 
L -63 -1063 
L 3263 -1063 
z
" transform="scale(0.015625)"/>
      <path id="DejaVuSans-6d" d="M 3328 2828 
Q 3544 3216 3844 3400 
Q 4144 3584 4550 3584 
Q 5097 3584 5394 3201 
Q 5691 2819 5691 2113 
L 5691 0 
L 5113 0 
L 5113 2094 
Q 5113 2597 4934 2840 
Q 4756 3084 4391 3084 
Q 3944 3084 3684 2787 
Q 3425 2491 3425 1978 
L 3425 0 
L 2847 0 
L 2847 2094 
Q 2847 2600 2669 2842 
Q 2491 3084 2119 3084 
Q 1678 3084 1418 2786 
Q 1159 2488 1159 1978 
L 1159 0 
L 581 0 
L 581 3500 
L 1159 3500 
L 1159 2956 
Q 1356 3278 1631 3431 
Q 1906 3584 2284 3584 
Q 2666 3584 2933 3390 
Q 3200 3197 3328 2828 
z
" transform="scale(0.015625)"/>
     </defs>
     <use xlink:href="#DejaVuSans-2b"/>
     <use xlink:href="#DejaVuSans-20" x="83.789062"/>
     <use xlink:href="#DejaVuSans-63" x="115.576172"/>
     <use xlink:href="#DejaVuSans-72" x="170.556641"/>
     <use xlink:href="#DejaVuSans-65" x="209.419922"/>
     <use xlink:href="#DejaVuSans-61" x="270.943359"/>
     <use xlink:href="#DejaVuSans-74" x="332.222656"/>
     <use xlink:href="#DejaVuSans-65" x="371.431641"/>
     <use xlink:href="#DejaVuSans-64" x="432.955078"/>
     <use xlink:href="#DejaVuSans-5f" x="496.431641"/>
     <use xlink:href="#DejaVuSans-61" x="546.431641"/>
     <use xlink:href="#DejaVuSans-74" x="607.710938"/>
     <use xlink:href="#DejaVuSans-3a" x="646.919922"/>
     <use xlink:href="#DejaVuSans-20" x="680.611328"/>
     <use xlink:href="#DejaVuSans-64" x="712.398438"/>
     <use xlink:href="#DejaVuSans-61" x="775.875"/>
     <use xlink:href="#DejaVuSans-74" x="837.154297"/>
     <use xlink:href="#DejaVuSans-65" x="876.363281"/>
     <use xlink:href="#DejaVuSans-74" x="937.886719"/>
     <use xlink:href="#DejaVuSans-69" x="977.095703"/>
     <use xlink:href="#DejaVuSans-6d" x="1004.878906"/>
     <use xlink:href="#DejaVuSans-65" x="1102.291016"/>
    </g>
    <!-- + updated_at: datetime -->
    <g transform="translate(61.884 112.316187) scale(0.1 -0.1)">
     <defs>
      <path id="DejaVuSans-75" d="M 544 1381 
L 544 3500 
L 1119 3500 
L 1119 1403 
Q 1119 906 1312 657 
Q 1506 409 1894 409 
Q 2359 409 2629 706 
Q 2900 1003 2900 1516 
L 2900 3500 
L 3475 3500 
L 3475 0 
L 2900 0 
L 2900 538 
Q 2691 219 2414 64 
Q 2138 -91 1772 -91 
Q 1169 -91 856 284 
Q 544 659 544 1381 
z
M 1991 3584 
L 1991 3584 
z
" transform="scale(0.015625)"/>
      <path id="DejaVuSans-70" d="M 1159 525 
L 1159 -1331 
L 581 -1331 
L 581 3500 
L 1159 3500 
L 1159 2969 
Q 1341 3281 1617 3432 
Q 1894 3584 2278 3584 
Q 2916 3584 3314 3078 
Q 3713 2572 3713 1747 
Q 3713 922 3314 415 
Q 2916 -91 2278 -91 
Q 1894 -91 1617 61 
Q 1341 213 1159 525 
z
M 3116 1747 
Q 3116 2381 2855 2742 
Q 2594 3103 2138 3103 
Q 1681 3103 1420 2742 
Q 1159 2381 1159 1747 
Q 1159 1113 1420 752 
Q 1681 391 2138 391 
Q 2594 391 2855 752 
Q 3116 1113 3116 1747 
z
" transform="scale(0.015625)"/>
     </defs>
     <use xlink:href="#DejaVuSans-2b"/>
     <use xlink:href="#DejaVuSans-20" x="83.789062"/>
     <use xlink:href="#DejaVuSans-75" x="115.576172"/>
     <use xlink:href="#DejaVuSans-70" x="178.955078"/>
     <use xlink:href="#DejaVuSans-64" x="242.431641"/>
     <use xlink:href="#DejaVuSans-61" x="305.908203"/>
     <use xlink:href="#DejaVuSans-74" x="367.1875"/>
     <use xlink:href="#DejaVuSans-65" x="406.396484"/>
     <use xlink:href="#DejaVuSans-64" x="467.919922"/>
     <use xlink:href="#DejaVuSans-5f" x="531.396484"/>
     <use xlink:href="#DejaVuSans-61" x="581.396484"/>
     <use xlink:href="#DejaVuSans-74" x="642.675781"/>
     <use xlink:href="#DejaVuSans-3a" x="681.884766"/>
     <use xlink:href="#DejaVuSans-20" x="715.576172"/>
     <use xlink:href="#DejaVuSans-64" x="747.363281"/>
     <use xlink:href="#DejaVuSans-61" x="810.839844"/>
     <use xlink:href="#DejaVuSans-74" x="872.119141"/>
     <use xlink:href="#DejaVuSans-65" x="911.328125"/>
     <use xlink:href="#DejaVuSans-74" x="972.851562"/>
     <use xlink:href="#DejaVuSans-69" x="1012.060547"/>
     <use xlink:href="#DejaVuSans-6d" x="1039.84375"/>
     <use xlink:href="#DejaVuSans-65" x="1137.255859"/>
    </g>
    <!-- + touch_updated_at(): void -->
    <g transform="translate(61.884 123.792125) scale(0.1 -0.1)">
     <defs>
      <path id="DejaVuSans-6f" d="M 1959 3097 
Q 1497 3097 1228 2736 
Q 959 2375 959 1747 
Q 959 1119 1226 758 
Q 1494 397 1959 397 
Q 2419 397 2687 759 
Q 2956 1122 2956 1747 
Q 2956 2369 2687 2733 
Q 2419 3097 1959 3097 
z
M 1959 3584 
Q 2709 3584 3137 3096 
Q 3566 2609 3566 1747 
Q 3566 888 3137 398 
Q 2709 -91 1959 -91 
Q 1206 -91 779 398 
Q 353 888 353 1747 
Q 353 2609 779 3096 
Q 1206 3584 1959 3584 
z
" transform="scale(0.015625)"/>
      <path id="DejaVuSans-68" d="M 3513 2113 
L 3513 0 
L 2938 0 
L 2938 2094 
Q 2938 2591 2744 2837 
Q 2550 3084 2163 3084 
Q 1697 3084 1428 2787 
Q 1159 2491 1159 1978 
L 1159 0 
L 581 0 
L 581 4863 
L 1159 4863 
L 1159 2956 
Q 1366 3272 1645 3428 
Q 1925 3584 2291 3584 
Q 2894 3584 3203 3211 
Q 3513 2838 3513 2113 
z
" transform="scale(0.015625)"/>
      <path id="DejaVuSans-28" d="M 1984 4856 
Q 1566 4138 1362 3434 
Q 1159 2731 1159 2009 
Q 1159 1288 1364 580 
Q 1569 -128 1984 -844 
L 1484 -844 
Q 1016 -109 783 600 
Q 550 1309 550 2009 
Q 550 2706 781 3412 
Q 1013 4119 1484 4856 
L 1984 4856 
z
" transform="scale(0.015625)"/>
      <path id="DejaVuSans-29" d="M 513 4856 
L 1013 4856 
Q 1481 4119 1714 3412 
Q 1947 2706 1947 2009 
Q 1947 1309 1714 600 
Q 1481 -109 1013 -844 
L 513 -844 
Q 928 -128 1133 580 
Q 1338 1288 1338 2009 
Q 1338 2731 1133 3434 
Q 928 4138 513 4856 
z
" transform="scale(0.015625)"/>
      <path id="DejaVuSans-76" d="M 191 3500 
L 800 3500 
L 1894 563 
L 2988 3500 
L 3597 3500 
L 2284 0 
L 1503 0 
L 191 3500 
z
" transform="scale(0.015625)"/>
     </defs>
     <use xlink:href="#DejaVuSans-2b"/>
     <use xlink:href="#DejaVuSans-20" x="83.789062"/>
     <use xlink:href="#DejaVuSans-74" x="115.576172"/>
     <use xlink:href="#DejaVuSans-6f" x="154.785156"/>
     <use xlink:href="#DejaVuSans-75" x="215.966797"/>
     <use xlink:href="#DejaVuSans-63" x="279.345703"/>
     <use xlink:href="#DejaVuSans-68" x="334.326172"/>
     <use xlink:href="#DejaVuSans-5f" x="397.705078"/>
     <use xlink:href="#DejaVuSans-75" x="447.705078"/>
     <use xlink:href="#DejaVuSans-70" x="511.083984"/>
     <use xlink:href="#DejaVuSans-64" x="574.560547"/>
     <use xlink:href="#DejaVuSans-61" x="638.037109"/>
     <use xlink:href="#DejaVuSans-74" x="699.316406"/>
     <use xlink:href="#DejaVuSans-65" x="738.525391"/>
     <use xlink:href="#DejaVuSans-64" x="800.048828"/>
     <use xlink:href="#DejaVuSans-5f" x="863.525391"/>
     <use xlink:href="#DejaVuSans-61" x="913.525391"/>
     <use xlink:href="#DejaVuSans-74" x="974.804688"/>
     <use xlink:href="#DejaVuSans-28" x="1014.013672"/>
     <use xlink:href="#DejaVuSans-29" x="1053.027344"/>
     <use xlink:href="#DejaVuSans-3a" x="1092.041016"/>
     <use xlink:href="#DejaVuSans-20" x="1125.732422"/>
     <use xlink:href="#DejaVuSans-76" x="1157.519531"/>
     <use xlink:href="#DejaVuSans-6f" x="1216.699219"/>
     <use xlink:href="#DejaVuSans-69" x="1277.880859"/>
     <use xlink:href="#DejaVuSans-64" x="1305.664062"/>
    </g>
   </g>
   <g id="text_3">
    <!-- User -->
    <g transform="translate(166.209141 196.703569) scale(0.13 -0.13)">
     <defs>
      <path id="DejaVuSans-Bold-55" d="M 588 4666 
L 1791 4666 
L 1791 1869 
Q 1791 1291 1980 1042 
Q 2169 794 2597 794 
Q 3028 794 3217 1042 
Q 3406 1291 3406 1869 
L 3406 4666 
L 4609 4666 
L 4609 1869 
Q 4609 878 4112 393 
Q 3616 -91 2597 -91 
Q 1581 -91 1084 393 
Q 588 878 588 1869 
L 588 4666 
z
" transform="scale(0.015625)"/>
      <path id="DejaVuSans-Bold-72" d="M 3138 2547 
Q 2991 2616 2845 2648 
Q 2700 2681 2553 2681 
Q 2122 2681 1889 2404 
Q 1656 2128 1656 1613 
L 1656 0 
L 538 0 
L 538 3500 
L 1656 3500 
L 1656 2925 
Q 1872 3269 2151 3426 
Q 2431 3584 2822 3584 
Q 2878 3584 2943 3579 
Q 3009 3575 3134 3559 
L 3138 2547 
z
" transform="scale(0.015625)"/>
     </defs>
     <use xlink:href="#DejaVuSans-Bold-55"/>
     <use xlink:href="#DejaVuSans-Bold-73" x="81.201172"/>
     <use xlink:href="#DejaVuSans-Bold-65" x="140.722656"/>
     <use xlink:href="#DejaVuSans-Bold-72" x="208.544922"/>
    </g>
   </g>
   <g id="text_4">
    <!-- + first_name: str -->
    <g transform="translate(61.884 219.372037) scale(0.1 -0.1)">
     <defs>
      <path id="DejaVuSans-66" d="M 2375 4863 
L 2375 4384 
L 1825 4384 
Q 1516 4384 1395 4259 
Q 1275 4134 1275 3809 
L 1275 3500 
L 2222 3500 
L 2222 3053 
L 1275 3053 
L 1275 0 
L 697 0 
L 697 3053 
L 147 3053 
L 147 3500 
L 697 3500 
L 697 3744 
Q 697 4328 969 4595 
Q 1241 4863 1831 4863 
L 2375 4863 
z
" transform="scale(0.015625)"/>
      <path id="DejaVuSans-73" d="M 2834 3397 
L 2834 2853 
Q 2591 2978 2328 3040 
Q 2066 3103 1784 3103 
Q 1356 3103 1142 2972 
Q 928 2841 928 2578 
Q 928 2378 1081 2264 
Q 1234 2150 1697 2047 
L 1894 2003 
Q 2506 1872 2764 1633 
Q 3022 1394 3022 966 
Q 3022 478 2636 193 
Q 2250 -91 1575 -91 
Q 1294 -91 989 -36 
Q 684 19 347 128 
L 347 722 
Q 666 556 975 473 
Q 1284 391 1588 391 
Q 1994 391 2212 530 
Q 2431 669 2431 922 
Q 2431 1156 2273 1281 
Q 2116 1406 1581 1522 
L 1381 1569 
Q 847 1681 609 1914 
Q 372 2147 372 2553 
Q 372 3047 722 3315 
Q 1072 3584 1716 3584 
Q 2034 3584 2315 3537 
Q 2597 3491 2834 3397 
z
" transform="scale(0.015625)"/>
      <path id="DejaVuSans-6e" d="M 3513 2113 
L 3513 0 
L 2938 0 
L 2938 2094 
Q 2938 2591 2744 2837 
Q 2550 3084 2163 3084 
Q 1697 3084 1428 2787 
Q 1159 2491 1159 1978 
L 1159 0 
L 581 0 
L 581 3500 
L 1159 3500 
L 1159 2956 
Q 1366 3272 1645 3428 
Q 1925 3584 2291 3584 
Q 2894 3584 3203 3211 
Q 3513 2838 3513 2113 
z
" transform="scale(0.015625)"/>
     </defs>
     <use xlink:href="#DejaVuSans-2b"/>
     <use xlink:href="#DejaVuSans-20" x="83.789062"/>
     <use xlink:href="#DejaVuSans-66" x="115.576172"/>
     <use xlink:href="#DejaVuSans-69" x="150.78125"/>
     <use xlink:href="#DejaVuSans-72" x="178.564453"/>
     <use xlink:href="#DejaVuSans-73" x="219.677734"/>
     <use xlink:href="#DejaVuSans-74" x="271.777344"/>
     <use xlink:href="#DejaVuSans-5f" x="310.986328"/>
     <use xlink:href="#DejaVuSans-6e" x="360.986328"/>
     <use xlink:href="#DejaVuSans-61" x="424.365234"/>
     <use xlink:href="#DejaVuSans-6d" x="485.644531"/>
     <use xlink:href="#DejaVuSans-65" x="583.056641"/>
     <use xlink:href="#DejaVuSans-3a" x="644.580078"/>
     <use xlink:href="#DejaVuSans-20" x="678.271484"/>
     <use xlink:href="#DejaVuSans-73" x="710.058594"/>
     <use xlink:href="#DejaVuSans-74" x="762.158203"/>
     <use xlink:href="#DejaVuSans-72" x="801.367188"/>
    </g>
    <!-- + last_name: str -->
    <g transform="translate(61.884 230.847975) scale(0.1 -0.1)">
     <defs>
      <path id="DejaVuSans-6c" d="M 603 4863 
L 1178 4863 
L 1178 0 
L 603 0 
L 603 4863 
z
" transform="scale(0.015625)"/>
     </defs>
     <use xlink:href="#DejaVuSans-2b"/>
     <use xlink:href="#DejaVuSans-20" x="83.789062"/>
     <use xlink:href="#DejaVuSans-6c" x="115.576172"/>
     <use xlink:href="#DejaVuSans-61" x="143.359375"/>
     <use xlink:href="#DejaVuSans-73" x="204.638672"/>
     <use xlink:href="#DejaVuSans-74" x="256.738281"/>
     <use xlink:href="#DejaVuSans-5f" x="295.947266"/>
     <use xlink:href="#DejaVuSans-6e" x="345.947266"/>
     <use xlink:href="#DejaVuSans-61" x="409.326172"/>
     <use xlink:href="#DejaVuSans-6d" x="470.605469"/>
     <use xlink:href="#DejaVuSans-65" x="568.017578"/>
     <use xlink:href="#DejaVuSans-3a" x="629.541016"/>
     <use xlink:href="#DejaVuSans-20" x="663.232422"/>
     <use xlink:href="#DejaVuSans-73" x="695.019531"/>
     <use xlink:href="#DejaVuSans-74" x="747.119141"/>
     <use xlink:href="#DejaVuSans-72" x="786.328125"/>
    </g>
    <!-- + email: str -->
    <g transform="translate(61.884 242.323913) scale(0.1 -0.1)">
     <use xlink:href="#DejaVuSans-2b"/>
     <use xlink:href="#DejaVuSans-20" x="83.789062"/>
     <use xlink:href="#DejaVuSans-65" x="115.576172"/>
     <use xlink:href="#DejaVuSans-6d" x="177.099609"/>
     <use xlink:href="#DejaVuSans-61" x="274.511719"/>
     <use xlink:href="#DejaVuSans-69" x="335.791016"/>
     <use xlink:href="#DejaVuSans-6c" x="363.574219"/>
     <use xlink:href="#DejaVuSans-3a" x="391.357422"/>
     <use xlink:href="#DejaVuSans-20" x="425.048828"/>
     <use xlink:href="#DejaVuSans-73" x="456.835938"/>
     <use xlink:href="#DejaVuSans-74" x="508.935547"/>
     <use xlink:href="#DejaVuSans-72" x="548.144531"/>
    </g>
    <!-- + password_hash: str -->
    <g transform="translate(61.884 253.521725) scale(0.1 -0.1)">
     <defs>
      <path id="DejaVuSans-77" d="M 269 3500 
L 844 3500 
L 1563 769 
L 2278 3500 
L 2956 3500 
L 3675 769 
L 4391 3500 
L 4966 3500 
L 4050 0 
L 3372 0 
L 2619 2869 
L 1863 0 
L 1184 0 
L 269 3500 
z
" transform="scale(0.015625)"/>
     </defs>
     <use xlink:href="#DejaVuSans-2b"/>
     <use xlink:href="#DejaVuSans-20" x="83.789062"/>
     <use xlink:href="#DejaVuSans-70" x="115.576172"/>
     <use xlink:href="#DejaVuSans-61" x="179.052734"/>
     <use xlink:href="#DejaVuSans-73" x="240.332031"/>
     <use xlink:href="#DejaVuSans-73" x="292.431641"/>
     <use xlink:href="#DejaVuSans-77" x="344.53125"/>
     <use xlink:href="#DejaVuSans-6f" x="426.318359"/>
     <use xlink:href="#DejaVuSans-72" x="487.5"/>
     <use xlink:href="#DejaVuSans-64" x="526.863281"/>
     <use xlink:href="#DejaVuSans-5f" x="590.339844"/>
     <use xlink:href="#DejaVuSans-68" x="640.339844"/>
     <use xlink:href="#DejaVuSans-61" x="703.71875"/>
     <use xlink:href="#DejaVuSans-73" x="764.998047"/>
     <use xlink:href="#DejaVuSans-68" x="817.097656"/>
     <use xlink:href="#DejaVuSans-3a" x="880.476562"/>
     <use xlink:href="#DejaVuSans-20" x="914.167969"/>
     <use xlink:href="#DejaVuSans-73" x="945.955078"/>
     <use xlink:href="#DejaVuSans-74" x="998.054688"/>
     <use xlink:href="#DejaVuSans-72" x="1037.263672"/>
    </g>
    <!-- + is_admin: bool -->
    <g transform="translate(61.884 264.997662) scale(0.1 -0.1)">
     <defs>
      <path id="DejaVuSans-62" d="M 3116 1747 
Q 3116 2381 2855 2742 
Q 2594 3103 2138 3103 
Q 1681 3103 1420 2742 
Q 1159 2381 1159 1747 
Q 1159 1113 1420 752 
Q 1681 391 2138 391 
Q 2594 391 2855 752 
Q 3116 1113 3116 1747 
z
M 1159 2969 
Q 1341 3281 1617 3432 
Q 1894 3584 2278 3584 
Q 2916 3584 3314 3078 
Q 3713 2572 3713 1747 
Q 3713 922 3314 415 
Q 2916 -91 2278 -91 
Q 1894 -91 1617 61 
Q 1341 213 1159 525 
L 1159 0 
L 581 0 
L 581 4863 
L 1159 4863 
L 1159 2969 
z
" transform="scale(0.015625)"/>
     </defs>
     <use xlink:href="#DejaVuSans-2b"/>
     <use xlink:href="#DejaVuSans-20" x="83.789062"/>
     <use xlink:href="#DejaVuSans-69" x="115.576172"/>
     <use xlink:href="#DejaVuSans-73" x="143.359375"/>
     <use xlink:href="#DejaVuSans-5f" x="195.458984"/>
     <use xlink:href="#DejaVuSans-61" x="245.458984"/>
     <use xlink:href="#DejaVuSans-64" x="306.738281"/>
     <use xlink:href="#DejaVuSans-6d" x="370.214844"/>
     <use xlink:href="#DejaVuSans-69" x="467.626953"/>
     <use xlink:href="#DejaVuSans-6e" x="495.410156"/>
     <use xlink:href="#DejaVuSans-3a" x="558.789062"/>
     <use xlink:href="#DejaVuSans-20" x="592.480469"/>
     <use xlink:href="#DejaVuSans-62" x="624.267578"/>
     <use xlink:href="#DejaVuSans-6f" x="687.744141"/>
     <use xlink:href="#DejaVuSans-6f" x="748.925781"/>
     <use xlink:href="#DejaVuSans-6c" x="810.107422"/>
    </g>
    <!--  -->
    <g transform="translate(61.884 276.4736) scale(0.1 -0.1)"/>
    <!-- + update_profile(data): void -->
    <g transform="translate(61.884 287.671412) scale(0.1 -0.1)">
     <use xlink:href="#DejaVuSans-2b"/>
     <use xlink:href="#DejaVuSans-20" x="83.789062"/>
     <use xlink:href="#DejaVuSans-75" x="115.576172"/>
     <use xlink:href="#DejaVuSans-70" x="178.955078"/>
     <use xlink:href="#DejaVuSans-64" x="242.431641"/>
     <use xlink:href="#DejaVuSans-61" x="305.908203"/>
     <use xlink:href="#DejaVuSans-74" x="367.1875"/>
     <use xlink:href="#DejaVuSans-65" x="406.396484"/>
     <use xlink:href="#DejaVuSans-5f" x="467.919922"/>
     <use xlink:href="#DejaVuSans-70" x="517.919922"/>
     <use xlink:href="#DejaVuSans-72" x="581.396484"/>
     <use xlink:href="#DejaVuSans-6f" x="620.259766"/>
     <use xlink:href="#DejaVuSans-66" x="681.441406"/>
     <use xlink:href="#DejaVuSans-69" x="716.646484"/>
     <use xlink:href="#DejaVuSans-6c" x="744.429688"/>
     <use xlink:href="#DejaVuSans-65" x="772.212891"/>
     <use xlink:href="#DejaVuSans-28" x="833.736328"/>
     <use xlink:href="#DejaVuSans-64" x="872.75"/>
     <use xlink:href="#DejaVuSans-61" x="936.226562"/>
     <use xlink:href="#DejaVuSans-74" x="997.505859"/>
     <use xlink:href="#DejaVuSans-61" x="1036.714844"/>
     <use xlink:href="#DejaVuSans-29" x="1097.994141"/>
     <use xlink:href="#DejaVuSans-3a" x="1137.007812"/>
     <use xlink:href="#DejaVuSans-20" x="1170.699219"/>
     <use xlink:href="#DejaVuSans-76" x="1202.486328"/>
     <use xlink:href="#DejaVuSans-6f" x="1261.666016"/>
     <use xlink:href="#DejaVuSans-69" x="1322.847656"/>
     <use xlink:href="#DejaVuSans-64" x="1350.630859"/>
    </g>
    <!-- + set_password(raw): void -->
    <g transform="translate(61.884 299.14735) scale(0.1 -0.1)">
     <use xlink:href="#DejaVuSans-2b"/>
     <use xlink:href="#DejaVuSans-20" x="83.789062"/>
     <use xlink:href="#DejaVuSans-73" x="115.576172"/>
     <use xlink:href="#DejaVuSans-65" x="167.675781"/>
     <use xlink:href="#DejaVuSans-74" x="229.199219"/>
     <use xlink:href="#DejaVuSans-5f" x="268.408203"/>
     <use xlink:href="#DejaVuSans-70" x="318.408203"/>
     <use xlink:href="#DejaVuSans-61" x="381.884766"/>
     <use xlink:href="#DejaVuSans-73" x="443.164062"/>
     <use xlink:href="#DejaVuSans-73" x="495.263672"/>
     <use xlink:href="#DejaVuSans-77" x="547.363281"/>
     <use xlink:href="#DejaVuSans-6f" x="629.150391"/>
     <use xlink:href="#DejaVuSans-72" x="690.332031"/>
     <use xlink:href="#DejaVuSans-64" x="729.695312"/>
     <use xlink:href="#DejaVuSans-28" x="793.171875"/>
     <use xlink:href="#DejaVuSans-72" x="832.185547"/>
     <use xlink:href="#DejaVuSans-61" x="873.298828"/>
     <use xlink:href="#DejaVuSans-77" x="934.578125"/>
     <use xlink:href="#DejaVuSans-29" x="1016.365234"/>
     <use xlink:href="#DejaVuSans-3a" x="1055.378906"/>
     <use xlink:href="#DejaVuSans-20" x="1089.070312"/>
     <use xlink:href="#DejaVuSans-76" x="1120.857422"/>
     <use xlink:href="#DejaVuSans-6f" x="1180.037109"/>
     <use xlink:href="#DejaVuSans-69" x="1241.21875"/>
     <use xlink:href="#DejaVuSans-64" x="1269.001953"/>
    </g>
    <!-- + check_password(raw): bool -->
    <g transform="translate(61.884 310.623288) scale(0.1 -0.1)">
     <defs>
      <path id="DejaVuSans-6b" d="M 581 4863 
L 1159 4863 
L 1159 1991 
L 2875 3500 
L 3609 3500 
L 1753 1863 
L 3688 0 
L 2938 0 
L 1159 1709 
L 1159 0 
L 581 0 
L 581 4863 
z
" transform="scale(0.015625)"/>
     </defs>
     <use xlink:href="#DejaVuSans-2b"/>
     <use xlink:href="#DejaVuSans-20" x="83.789062"/>
     <use xlink:href="#DejaVuSans-63" x="115.576172"/>
     <use xlink:href="#DejaVuSans-68" x="170.556641"/>
     <use xlink:href="#DejaVuSans-65" x="233.935547"/>
     <use xlink:href="#DejaVuSans-63" x="295.458984"/>
     <use xlink:href="#DejaVuSans-6b" x="350.439453"/>
     <use xlink:href="#DejaVuSans-5f" x="408.349609"/>
     <use xlink:href="#DejaVuSans-70" x="458.349609"/>
     <use xlink:href="#DejaVuSans-61" x="521.826172"/>
     <use xlink:href="#DejaVuSans-73" x="583.105469"/>
     <use xlink:href="#DejaVuSans-73" x="635.205078"/>
     <use xlink:href="#DejaVuSans-77" x="687.304688"/>
     <use xlink:href="#DejaVuSans-6f" x="769.091797"/>
     <use xlink:href="#DejaVuSans-72" x="830.273438"/>
     <use xlink:href="#DejaVuSans-64" x="869.636719"/>
     <use xlink:href="#DejaVuSans-28" x="933.113281"/>
     <use xlink:href="#DejaVuSans-72" x="972.126953"/>
     <use xlink:href="#DejaVuSans-61" x="1013.240234"/>
     <use xlink:href="#DejaVuSans-77" x="1074.519531"/>
     <use xlink:href="#DejaVuSans-29" x="1156.306641"/>
     <use xlink:href="#DejaVuSans-3a" x="1195.320312"/>
     <use xlink:href="#DejaVuSans-20" x="1229.011719"/>
     <use xlink:href="#DejaVuSans-62" x="1260.798828"/>
     <use xlink:href="#DejaVuSans-6f" x="1324.275391"/>
     <use xlink:href="#DejaVuSans-6f" x="1385.457031"/>
     <use xlink:href="#DejaVuSans-6c" x="1446.638672"/>
    </g>
   </g>
   <g id="text_5">
    <!-- Place -->
    <g transform="translate(452.372828 196.703569) scale(0.13 -0.13)">
     <defs>
      <path id="DejaVuSans-Bold-50" d="M 588 4666 
L 2584 4666 
Q 3475 4666 3951 4270 
Q 4428 3875 4428 3144 
Q 4428 2409 3951 2014 
Q 3475 1619 2584 1619 
L 1791 1619 
L 1791 0 
L 588 0 
L 588 4666 
z
M 1791 3794 
L 1791 2491 
L 2456 2491 
Q 2806 2491 2997 2661 
Q 3188 2831 3188 3144 
Q 3188 3456 2997 3625 
Q 2806 3794 2456 3794 
L 1791 3794 
z
" transform="scale(0.015625)"/>
      <path id="DejaVuSans-Bold-6c" d="M 538 4863 
L 1656 4863 
L 1656 0 
L 538 0 
L 538 4863 
z
" transform="scale(0.015625)"/>
      <path id="DejaVuSans-Bold-63" d="M 3366 3391 
L 3366 2478 
Q 3138 2634 2908 2709 
Q 2678 2784 2431 2784 
Q 1963 2784 1702 2511 
Q 1441 2238 1441 1747 
Q 1441 1256 1702 982 
Q 1963 709 2431 709 
Q 2694 709 2930 787 
Q 3166 866 3366 1019 
L 3366 103 
Q 3103 6 2833 -42 
Q 2563 -91 2291 -91 
Q 1344 -91 809 395 
Q 275 881 275 1747 
Q 275 2613 809 3098 
Q 1344 3584 2291 3584 
Q 2566 3584 2833 3536 
Q 3100 3488 3366 3391 
z
" transform="scale(0.015625)"/>
     </defs>
     <use xlink:href="#DejaVuSans-Bold-50"/>
     <use xlink:href="#DejaVuSans-Bold-6c" x="73.291016"/>
     <use xlink:href="#DejaVuSans-Bold-61" x="107.568359"/>
     <use xlink:href="#DejaVuSans-Bold-63" x="175.048828"/>
     <use xlink:href="#DejaVuSans-Bold-65" x="234.326172"/>
    </g>
   </g>
   <g id="text_6">
    <!-- + title: str -->
    <g transform="translate(350.928 219.372037) scale(0.1 -0.1)">
     <use xlink:href="#DejaVuSans-2b"/>
     <use xlink:href="#DejaVuSans-20" x="83.789062"/>
     <use xlink:href="#DejaVuSans-74" x="115.576172"/>
     <use xlink:href="#DejaVuSans-69" x="154.785156"/>
     <use xlink:href="#DejaVuSans-74" x="182.568359"/>
     <use xlink:href="#DejaVuSans-6c" x="221.777344"/>
     <use xlink:href="#DejaVuSans-65" x="249.560547"/>
     <use xlink:href="#DejaVuSans-3a" x="311.083984"/>
     <use xlink:href="#DejaVuSans-20" x="344.775391"/>
     <use xlink:href="#DejaVuSans-73" x="376.5625"/>
     <use xlink:href="#DejaVuSans-74" x="428.662109"/>
     <use xlink:href="#DejaVuSans-72" x="467.871094"/>
    </g>
    <!-- + description: str -->
    <g transform="translate(350.928 230.56985) scale(0.1 -0.1)">
     <use xlink:href="#DejaVuSans-2b"/>
     <use xlink:href="#DejaVuSans-20" x="83.789062"/>
     <use xlink:href="#DejaVuSans-64" x="115.576172"/>
     <use xlink:href="#DejaVuSans-65" x="179.052734"/>
     <use xlink:href="#DejaVuSans-73" x="240.576172"/>
     <use xlink:href="#DejaVuSans-63" x="292.675781"/>
     <use xlink:href="#DejaVuSans-72" x="347.65625"/>
     <use xlink:href="#DejaVuSans-69" x="388.769531"/>
     <use xlink:href="#DejaVuSans-70" x="416.552734"/>
     <use xlink:href="#DejaVuSans-74" x="480.029297"/>
     <use xlink:href="#DejaVuSans-69" x="519.238281"/>
     <use xlink:href="#DejaVuSans-6f" x="547.021484"/>
     <use xlink:href="#DejaVuSans-6e" x="608.203125"/>
     <use xlink:href="#DejaVuSans-3a" x="671.582031"/>
     <use xlink:href="#DejaVuSans-20" x="705.273438"/>
     <use xlink:href="#DejaVuSans-73" x="737.060547"/>
     <use xlink:href="#DejaVuSans-74" x="789.160156"/>
     <use xlink:href="#DejaVuSans-72" x="828.369141"/>
    </g>
    <!-- + price: decimal -->
    <g transform="translate(350.928 241.767662) scale(0.1 -0.1)">
     <use xlink:href="#DejaVuSans-2b"/>
     <use xlink:href="#DejaVuSans-20" x="83.789062"/>
     <use xlink:href="#DejaVuSans-70" x="115.576172"/>
     <use xlink:href="#DejaVuSans-72" x="179.052734"/>
     <use xlink:href="#DejaVuSans-69" x="220.166016"/>
     <use xlink:href="#DejaVuSans-63" x="247.949219"/>
     <use xlink:href="#DejaVuSans-65" x="302.929688"/>
     <use xlink:href="#DejaVuSans-3a" x="364.453125"/>
     <use xlink:href="#DejaVuSans-20" x="398.144531"/>
     <use xlink:href="#DejaVuSans-64" x="429.931641"/>
     <use xlink:href="#DejaVuSans-65" x="493.408203"/>
     <use xlink:href="#DejaVuSans-63" x="554.931641"/>
     <use xlink:href="#DejaVuSans-69" x="609.912109"/>
     <use xlink:href="#DejaVuSans-6d" x="637.695312"/>
     <use xlink:href="#DejaVuSans-61" x="735.107422"/>
     <use xlink:href="#DejaVuSans-6c" x="796.386719"/>
    </g>
    <!-- + latitude: float -->
    <g transform="translate(350.928 252.965475) scale(0.1 -0.1)">
     <use xlink:href="#DejaVuSans-2b"/>
     <use xlink:href="#DejaVuSans-20" x="83.789062"/>
     <use xlink:href="#DejaVuSans-6c" x="115.576172"/>
     <use xlink:href="#DejaVuSans-61" x="143.359375"/>
     <use xlink:href="#DejaVuSans-74" x="204.638672"/>
     <use xlink:href="#DejaVuSans-69" x="243.847656"/>
     <use xlink:href="#DejaVuSans-74" x="271.630859"/>
     <use xlink:href="#DejaVuSans-75" x="310.839844"/>
     <use xlink:href="#DejaVuSans-64" x="374.21875"/>
     <use xlink:href="#DejaVuSans-65" x="437.695312"/>
     <use xlink:href="#DejaVuSans-3a" x="499.21875"/>
     <use xlink:href="#DejaVuSans-20" x="532.910156"/>
     <use xlink:href="#DejaVuSans-66" x="564.697266"/>
     <use xlink:href="#DejaVuSans-6c" x="599.902344"/>
     <use xlink:href="#DejaVuSans-6f" x="627.685547"/>
     <use xlink:href="#DejaVuSans-61" x="688.867188"/>
     <use xlink:href="#DejaVuSans-74" x="750.146484"/>
    </g>
    <!-- + longitude: float -->
    <g transform="translate(350.928 264.163287) scale(0.1 -0.1)">
     <defs>
      <path id="DejaVuSans-67" d="M 2906 1791 
Q 2906 2416 2648 2759 
Q 2391 3103 1925 3103 
Q 1463 3103 1205 2759 
Q 947 2416 947 1791 
Q 947 1169 1205 825 
Q 1463 481 1925 481 
Q 2391 481 2648 825 
Q 2906 1169 2906 1791 
z
M 3481 434 
Q 3481 -459 3084 -895 
Q 2688 -1331 1869 -1331 
Q 1566 -1331 1297 -1286 
Q 1028 -1241 775 -1147 
L 775 -588 
Q 1028 -725 1275 -790 
Q 1522 -856 1778 -856 
Q 2344 -856 2625 -561 
Q 2906 -266 2906 331 
L 2906 616 
Q 2728 306 2450 153 
Q 2172 0 1784 0 
Q 1141 0 747 490 
Q 353 981 353 1791 
Q 353 2603 747 3093 
Q 1141 3584 1784 3584 
Q 2172 3584 2450 3431 
Q 2728 3278 2906 2969 
L 2906 3500 
L 3481 3500 
L 3481 434 
z
" transform="scale(0.015625)"/>
     </defs>
     <use xlink:href="#DejaVuSans-2b"/>
     <use xlink:href="#DejaVuSans-20" x="83.789062"/>
     <use xlink:href="#DejaVuSans-6c" x="115.576172"/>
     <use xlink:href="#DejaVuSans-6f" x="143.359375"/>
     <use xlink:href="#DejaVuSans-6e" x="204.541016"/>
     <use xlink:href="#DejaVuSans-67" x="267.919922"/>
     <use xlink:href="#DejaVuSans-69" x="331.396484"/>
     <use xlink:href="#DejaVuSans-74" x="359.179688"/>
     <use xlink:href="#DejaVuSans-75" x="398.388672"/>
     <use xlink:href="#DejaVuSans-64" x="461.767578"/>
     <use xlink:href="#DejaVuSans-65" x="525.244141"/>
     <use xlink:href="#DejaVuSans-3a" x="586.767578"/>
     <use xlink:href="#DejaVuSans-20" x="620.458984"/>
     <use xlink:href="#DejaVuSans-66" x="652.246094"/>
     <use xlink:href="#DejaVuSans-6c" x="687.451172"/>
     <use xlink:href="#DejaVuSans-6f" x="715.234375"/>
     <use xlink:href="#DejaVuSans-61" x="776.416016"/>
     <use xlink:href="#DejaVuSans-74" x="837.695312"/>
    </g>
    <!--  -->
    <g transform="translate(350.928 275.3611) scale(0.1 -0.1)"/>
    <!-- + add_amenity(a): void -->
    <g transform="translate(350.928 286.558913) scale(0.1 -0.1)">
     <defs>
      <path id="DejaVuSans-79" d="M 2059 -325 
Q 1816 -950 1584 -1140 
Q 1353 -1331 966 -1331 
L 506 -1331 
L 506 -850 
L 844 -850 
Q 1081 -850 1212 -737 
Q 1344 -625 1503 -206 
L 1606 56 
L 191 3500 
L 800 3500 
L 1894 763 
L 2988 3500 
L 3597 3500 
L 2059 -325 
z
" transform="scale(0.015625)"/>
     </defs>
     <use xlink:href="#DejaVuSans-2b"/>
     <use xlink:href="#DejaVuSans-20" x="83.789062"/>
     <use xlink:href="#DejaVuSans-61" x="115.576172"/>
     <use xlink:href="#DejaVuSans-64" x="176.855469"/>
     <use xlink:href="#DejaVuSans-64" x="240.332031"/>
     <use xlink:href="#DejaVuSans-5f" x="303.808594"/>
     <use xlink:href="#DejaVuSans-61" x="353.808594"/>
     <use xlink:href="#DejaVuSans-6d" x="415.087891"/>
     <use xlink:href="#DejaVuSans-65" x="512.5"/>
     <use xlink:href="#DejaVuSans-6e" x="574.023438"/>
     <use xlink:href="#DejaVuSans-69" x="637.402344"/>
     <use xlink:href="#DejaVuSans-74" x="665.185547"/>
     <use xlink:href="#DejaVuSans-79" x="704.394531"/>
     <use xlink:href="#DejaVuSans-28" x="763.574219"/>
     <use xlink:href="#DejaVuSans-61" x="802.587891"/>
     <use xlink:href="#DejaVuSans-29" x="863.867188"/>
     <use xlink:href="#DejaVuSans-3a" x="902.880859"/>
     <use xlink:href="#DejaVuSans-20" x="936.572266"/>
     <use xlink:href="#DejaVuSans-76" x="968.359375"/>
     <use xlink:href="#DejaVuSans-6f" x="1027.539062"/>
     <use xlink:href="#DejaVuSans-69" x="1088.720703"/>
     <use xlink:href="#DejaVuSans-64" x="1116.503906"/>
    </g>
    <!-- + remove_amenity(a): void -->
    <g transform="translate(350.928 298.03485) scale(0.1 -0.1)">
     <use xlink:href="#DejaVuSans-2b"/>
     <use xlink:href="#DejaVuSans-20" x="83.789062"/>
     <use xlink:href="#DejaVuSans-72" x="115.576172"/>
     <use xlink:href="#DejaVuSans-65" x="154.439453"/>
     <use xlink:href="#DejaVuSans-6d" x="215.962891"/>
     <use xlink:href="#DejaVuSans-6f" x="313.375"/>
     <use xlink:href="#DejaVuSans-76" x="374.556641"/>
     <use xlink:href="#DejaVuSans-65" x="433.736328"/>
     <use xlink:href="#DejaVuSans-5f" x="495.259766"/>
     <use xlink:href="#DejaVuSans-61" x="545.259766"/>
     <use xlink:href="#DejaVuSans-6d" x="606.539062"/>
     <use xlink:href="#DejaVuSans-65" x="703.951172"/>
     <use xlink:href="#DejaVuSans-6e" x="765.474609"/>
     <use xlink:href="#DejaVuSans-69" x="828.853516"/>
     <use xlink:href="#DejaVuSans-74" x="856.636719"/>
     <use xlink:href="#DejaVuSans-79" x="895.845703"/>
     <use xlink:href="#DejaVuSans-28" x="955.025391"/>
     <use xlink:href="#DejaVuSans-61" x="994.039062"/>
     <use xlink:href="#DejaVuSans-29" x="1055.318359"/>
     <use xlink:href="#DejaVuSans-3a" x="1094.332031"/>
     <use xlink:href="#DejaVuSans-20" x="1128.023438"/>
     <use xlink:href="#DejaVuSans-76" x="1159.810547"/>
     <use xlink:href="#DejaVuSans-6f" x="1218.990234"/>
     <use xlink:href="#DejaVuSans-69" x="1280.171875"/>
     <use xlink:href="#DejaVuSans-64" x="1307.955078"/>
    </g>
    <!-- + update_details(data): void -->
    <g transform="translate(350.928 309.510787) scale(0.1 -0.1)">
     <use xlink:href="#DejaVuSans-2b"/>
     <use xlink:href="#DejaVuSans-20" x="83.789062"/>
     <use xlink:href="#DejaVuSans-75" x="115.576172"/>
     <use xlink:href="#DejaVuSans-70" x="178.955078"/>
     <use xlink:href="#DejaVuSans-64" x="242.431641"/>
     <use xlink:href="#DejaVuSans-61" x="305.908203"/>
     <use xlink:href="#DejaVuSans-74" x="367.1875"/>
     <use xlink:href="#DejaVuSans-65" x="406.396484"/>
     <use xlink:href="#DejaVuSans-5f" x="467.919922"/>
     <use xlink:href="#DejaVuSans-64" x="517.919922"/>
     <use xlink:href="#DejaVuSans-65" x="581.396484"/>
     <use xlink:href="#DejaVuSans-74" x="642.919922"/>
     <use xlink:href="#DejaVuSans-61" x="682.128906"/>
     <use xlink:href="#DejaVuSans-69" x="743.408203"/>
     <use xlink:href="#DejaVuSans-6c" x="771.191406"/>
     <use xlink:href="#DejaVuSans-73" x="798.974609"/>
     <use xlink:href="#DejaVuSans-28" x="851.074219"/>
     <use xlink:href="#DejaVuSans-64" x="890.087891"/>
     <use xlink:href="#DejaVuSans-61" x="953.564453"/>
     <use xlink:href="#DejaVuSans-74" x="1014.84375"/>
     <use xlink:href="#DejaVuSans-61" x="1054.052734"/>
     <use xlink:href="#DejaVuSans-29" x="1115.332031"/>
     <use xlink:href="#DejaVuSans-3a" x="1154.345703"/>
     <use xlink:href="#DejaVuSans-20" x="1188.037109"/>
     <use xlink:href="#DejaVuSans-76" x="1219.824219"/>
     <use xlink:href="#DejaVuSans-6f" x="1279.003906"/>
     <use xlink:href="#DejaVuSans-69" x="1340.185547"/>
     <use xlink:href="#DejaVuSans-64" x="1367.96875"/>
    </g>
   </g>
   <g id="text_7">
    <!-- Review -->
    <g transform="translate(445.720484 366.349969) scale(0.13 -0.13)">
     <defs>
      <path id="DejaVuSans-Bold-52" d="M 2297 2597 
Q 2675 2597 2839 2737 
Q 3003 2878 3003 3200 
Q 3003 3519 2839 3656 
Q 2675 3794 2297 3794 
L 1791 3794 
L 1791 2597 
L 2297 2597 
z
M 1791 1766 
L 1791 0 
L 588 0 
L 588 4666 
L 2425 4666 
Q 3347 4666 3776 4356 
Q 4206 4047 4206 3378 
Q 4206 2916 3982 2619 
Q 3759 2322 3309 2181 
Q 3556 2125 3751 1926 
Q 3947 1728 4147 1325 
L 4800 0 
L 3519 0 
L 2950 1159 
Q 2778 1509 2601 1637 
Q 2425 1766 2131 1766 
L 1791 1766 
z
" transform="scale(0.015625)"/>
      <path id="DejaVuSans-Bold-76" d="M 97 3500 
L 1216 3500 
L 2088 1081 
L 2956 3500 
L 4078 3500 
L 2700 0 
L 1472 0 
L 97 3500 
z
" transform="scale(0.015625)"/>
      <path id="DejaVuSans-Bold-77" d="M 225 3500 
L 1313 3500 
L 1900 1088 
L 2491 3500 
L 3425 3500 
L 4013 1113 
L 4603 3500 
L 5691 3500 
L 4769 0 
L 3547 0 
L 2956 2406 
L 2369 0 
L 1147 0 
L 225 3500 
z
" transform="scale(0.015625)"/>
     </defs>
     <use xlink:href="#DejaVuSans-Bold-52"/>
     <use xlink:href="#DejaVuSans-Bold-65" x="77.001953"/>
     <use xlink:href="#DejaVuSans-Bold-76" x="144.824219"/>
     <use xlink:href="#DejaVuSans-Bold-69" x="210.009766"/>
     <use xlink:href="#DejaVuSans-Bold-65" x="244.287109"/>
     <use xlink:href="#DejaVuSans-Bold-77" x="312.109375"/>
    </g>
   </g>
   <g id="text_8">
    <!-- + rating: int -->
    <g transform="translate(350.928 389.018438) scale(0.1 -0.1)">
     <use xlink:href="#DejaVuSans-2b"/>
     <use xlink:href="#DejaVuSans-20" x="83.789062"/>
     <use xlink:href="#DejaVuSans-72" x="115.576172"/>
     <use xlink:href="#DejaVuSans-61" x="156.689453"/>
     <use xlink:href="#DejaVuSans-74" x="217.96875"/>
     <use xlink:href="#DejaVuSans-69" x="257.177734"/>
     <use xlink:href="#DejaVuSans-6e" x="284.960938"/>
     <use xlink:href="#DejaVuSans-67" x="348.339844"/>
     <use xlink:href="#DejaVuSans-3a" x="411.816406"/>
     <use xlink:href="#DejaVuSans-20" x="445.507812"/>
     <use xlink:href="#DejaVuSans-69" x="477.294922"/>
     <use xlink:href="#DejaVuSans-6e" x="505.078125"/>
     <use xlink:href="#DejaVuSans-74" x="568.457031"/>
    </g>
    <!-- + comment: str -->
    <g transform="translate(350.928 400.21625) scale(0.1 -0.1)">
     <use xlink:href="#DejaVuSans-2b"/>
     <use xlink:href="#DejaVuSans-20" x="83.789062"/>
     <use xlink:href="#DejaVuSans-63" x="115.576172"/>
     <use xlink:href="#DejaVuSans-6f" x="170.556641"/>
     <use xlink:href="#DejaVuSans-6d" x="231.738281"/>
     <use xlink:href="#DejaVuSans-6d" x="329.150391"/>
     <use xlink:href="#DejaVuSans-65" x="426.5625"/>
     <use xlink:href="#DejaVuSans-6e" x="488.085938"/>
     <use xlink:href="#DejaVuSans-74" x="551.464844"/>
     <use xlink:href="#DejaVuSans-3a" x="590.673828"/>
     <use xlink:href="#DejaVuSans-20" x="624.365234"/>
     <use xlink:href="#DejaVuSans-73" x="656.152344"/>
     <use xlink:href="#DejaVuSans-74" x="708.251953"/>
     <use xlink:href="#DejaVuSans-72" x="747.460938"/>
    </g>
    <!--  -->
    <g transform="translate(350.928 411.414062) scale(0.1 -0.1)"/>
    <!-- + update_review(data): void -->
    <g transform="translate(350.928 422.611875) scale(0.1 -0.1)">
     <use xlink:href="#DejaVuSans-2b"/>
     <use xlink:href="#DejaVuSans-20" x="83.789062"/>
     <use xlink:href="#DejaVuSans-75" x="115.576172"/>
     <use xlink:href="#DejaVuSans-70" x="178.955078"/>
     <use xlink:href="#DejaVuSans-64" x="242.431641"/>
     <use xlink:href="#DejaVuSans-61" x="305.908203"/>
     <use xlink:href="#DejaVuSans-74" x="367.1875"/>
     <use xlink:href="#DejaVuSans-65" x="406.396484"/>
     <use xlink:href="#DejaVuSans-5f" x="467.919922"/>
     <use xlink:href="#DejaVuSans-72" x="517.919922"/>
     <use xlink:href="#DejaVuSans-65" x="556.783203"/>
     <use xlink:href="#DejaVuSans-76" x="618.306641"/>
     <use xlink:href="#DejaVuSans-69" x="677.486328"/>
     <use xlink:href="#DejaVuSans-65" x="705.269531"/>
     <use xlink:href="#DejaVuSans-77" x="766.792969"/>
     <use xlink:href="#DejaVuSans-28" x="848.580078"/>
     <use xlink:href="#DejaVuSans-64" x="887.59375"/>
     <use xlink:href="#DejaVuSans-61" x="951.070312"/>
     <use xlink:href="#DejaVuSans-74" x="1012.349609"/>
     <use xlink:href="#DejaVuSans-61" x="1051.558594"/>
     <use xlink:href="#DejaVuSans-29" x="1112.837891"/>
     <use xlink:href="#DejaVuSans-3a" x="1151.851562"/>
     <use xlink:href="#DejaVuSans-20" x="1185.542969"/>
     <use xlink:href="#DejaVuSans-76" x="1217.330078"/>
     <use xlink:href="#DejaVuSans-6f" x="1276.509766"/>
     <use xlink:href="#DejaVuSans-69" x="1337.691406"/>
     <use xlink:href="#DejaVuSans-64" x="1365.474609"/>
    </g>
   </g>
   <g id="text_9">
    <!-- Amenity -->
    <g transform="translate(664.244125 226.641169) scale(0.13 -0.13)">
     <defs>
      <path id="DejaVuSans-Bold-41" d="M 3419 850 
L 1538 850 
L 1241 0 
L 31 0 
L 1759 4666 
L 3194 4666 
L 4922 0 
L 3713 0 
L 3419 850 
z
M 1838 1716 
L 3116 1716 
L 2478 3572 
L 1838 1716 
z
" transform="scale(0.015625)"/>
      <path id="DejaVuSans-Bold-6d" d="M 3781 2919 
Q 3994 3244 4286 3414 
Q 4578 3584 4928 3584 
Q 5531 3584 5847 3212 
Q 6163 2841 6163 2131 
L 6163 0 
L 5038 0 
L 5038 1825 
Q 5041 1866 5042 1909 
Q 5044 1953 5044 2034 
Q 5044 2406 4934 2573 
Q 4825 2741 4581 2741 
Q 4263 2741 4089 2478 
Q 3916 2216 3909 1719 
L 3909 0 
L 2784 0 
L 2784 1825 
Q 2784 2406 2684 2573 
Q 2584 2741 2328 2741 
Q 2006 2741 1831 2477 
Q 1656 2213 1656 1722 
L 1656 0 
L 531 0 
L 531 3500 
L 1656 3500 
L 1656 2988 
Q 1863 3284 2130 3434 
Q 2397 3584 2719 3584 
Q 3081 3584 3359 3409 
Q 3638 3234 3781 2919 
z
" transform="scale(0.015625)"/>
     </defs>
     <use xlink:href="#DejaVuSans-Bold-41"/>
     <use xlink:href="#DejaVuSans-Bold-6d" x="77.392578"/>
     <use xlink:href="#DejaVuSans-Bold-65" x="181.591797"/>
     <use xlink:href="#DejaVuSans-Bold-6e" x="249.414062"/>
     <use xlink:href="#DejaVuSans-Bold-69" x="320.605469"/>
     <use xlink:href="#DejaVuSans-Bold-74" x="354.882812"/>
     <use xlink:href="#DejaVuSans-Bold-79" x="402.685547"/>
    </g>
   </g>
   <g id="text_10">
    <!-- + name: str -->
    <g transform="translate(639.972 249.309638) scale(0.1 -0.1)">
     <use xlink:href="#DejaVuSans-2b"/>
     <use xlink:href="#DejaVuSans-20" x="83.789062"/>
     <use xlink:href="#DejaVuSans-6e" x="115.576172"/>
     <use xlink:href="#DejaVuSans-61" x="178.955078"/>
     <use xlink:href="#DejaVuSans-6d" x="240.234375"/>
     <use xlink:href="#DejaVuSans-65" x="337.646484"/>
     <use xlink:href="#DejaVuSans-3a" x="399.169922"/>
     <use xlink:href="#DejaVuSans-20" x="432.861328"/>
     <use xlink:href="#DejaVuSans-73" x="464.648438"/>
     <use xlink:href="#DejaVuSans-74" x="516.748047"/>
     <use xlink:href="#DejaVuSans-72" x="555.957031"/>
    </g>
    <!-- + description: str -->
    <g transform="translate(639.972 260.50745) scale(0.1 -0.1)">
     <use xlink:href="#DejaVuSans-2b"/>
     <use xlink:href="#DejaVuSans-20" x="83.789062"/>
     <use xlink:href="#DejaVuSans-64" x="115.576172"/>
     <use xlink:href="#DejaVuSans-65" x="179.052734"/>
     <use xlink:href="#DejaVuSans-73" x="240.576172"/>
     <use xlink:href="#DejaVuSans-63" x="292.675781"/>
     <use xlink:href="#DejaVuSans-72" x="347.65625"/>
     <use xlink:href="#DejaVuSans-69" x="388.769531"/>
     <use xlink:href="#DejaVuSans-70" x="416.552734"/>
     <use xlink:href="#DejaVuSans-74" x="480.029297"/>
     <use xlink:href="#DejaVuSans-69" x="519.238281"/>
     <use xlink:href="#DejaVuSans-6f" x="547.021484"/>
     <use xlink:href="#DejaVuSans-6e" x="608.203125"/>
     <use xlink:href="#DejaVuSans-3a" x="671.582031"/>
     <use xlink:href="#DejaVuSans-20" x="705.273438"/>
     <use xlink:href="#DejaVuSans-73" x="737.060547"/>
     <use xlink:href="#DejaVuSans-74" x="789.160156"/>
     <use xlink:href="#DejaVuSans-72" x="828.369141"/>
    </g>
    <!--  -->
    <g transform="translate(639.972 271.705263) scale(0.1 -0.1)"/>
    <!-- + update_amenity(data): void -->
    <g transform="translate(639.972 282.903075) scale(0.1 -0.1)">
     <use xlink:href="#DejaVuSans-2b"/>
     <use xlink:href="#DejaVuSans-20" x="83.789062"/>
     <use xlink:href="#DejaVuSans-75" x="115.576172"/>
     <use xlink:href="#DejaVuSans-70" x="178.955078"/>
     <use xlink:href="#DejaVuSans-64" x="242.431641"/>
     <use xlink:href="#DejaVuSans-61" x="305.908203"/>
     <use xlink:href="#DejaVuSans-74" x="367.1875"/>
     <use xlink:href="#DejaVuSans-65" x="406.396484"/>
     <use xlink:href="#DejaVuSans-5f" x="467.919922"/>
     <use xlink:href="#DejaVuSans-61" x="517.919922"/>
     <use xlink:href="#DejaVuSans-6d" x="579.199219"/>
     <use xlink:href="#DejaVuSans-65" x="676.611328"/>
     <use xlink:href="#DejaVuSans-6e" x="738.134766"/>
     <use xlink:href="#DejaVuSans-69" x="801.513672"/>
     <use xlink:href="#DejaVuSans-74" x="829.296875"/>
     <use xlink:href="#DejaVuSans-79" x="868.505859"/>
     <use xlink:href="#DejaVuSans-28" x="927.685547"/>
     <use xlink:href="#DejaVuSans-64" x="966.699219"/>
     <use xlink:href="#DejaVuSans-61" x="1030.175781"/>
     <use xlink:href="#DejaVuSans-74" x="1091.455078"/>
     <use xlink:href="#DejaVuSans-61" x="1130.664062"/>
     <use xlink:href="#DejaVuSans-29" x="1191.943359"/>
     <use xlink:href="#DejaVuSans-3a" x="1230.957031"/>
     <use xlink:href="#DejaVuSans-20" x="1264.648438"/>
     <use xlink:href="#DejaVuSans-76" x="1296.435547"/>
     <use xlink:href="#DejaVuSans-6f" x="1355.615234"/>
     <use xlink:href="#DejaVuSans-69" x="1416.796875"/>
     <use xlink:href="#DejaVuSans-64" x="1444.580078"/>
    </g>
   </g>
   <g id="text_11">
    <!-- inherits -->
    <g transform="translate(166.03875 159.371438) scale(0.09 -0.09)">
     <use xlink:href="#DejaVuSans-69"/>
     <use xlink:href="#DejaVuSans-6e" x="27.783203"/>
     <use xlink:href="#DejaVuSans-68" x="91.162109"/>
     <use xlink:href="#DejaVuSans-65" x="154.541016"/>
     <use xlink:href="#DejaVuSans-72" x="216.064453"/>
     <use xlink:href="#DejaVuSans-69" x="257.177734"/>
     <use xlink:href="#DejaVuSans-74" x="284.960938"/>
     <use xlink:href="#DejaVuSans-73" x="324.169922"/>
    </g>
   </g>
   <g id="text_12">
    <!-- inherits -->
    <g transform="translate(455.08275 159.371438) scale(0.09 -0.09)">
     <use xlink:href="#DejaVuSans-69"/>
     <use xlink:href="#DejaVuSans-6e" x="27.783203"/>
     <use xlink:href="#DejaVuSans-68" x="91.162109"/>
     <use xlink:href="#DejaVuSans-65" x="154.541016"/>
     <use xlink:href="#DejaVuSans-72" x="216.064453"/>
     <use xlink:href="#DejaVuSans-69" x="257.177734"/>
     <use xlink:href="#DejaVuSans-74" x="284.960938"/>
     <use xlink:href="#DejaVuSans-73" x="324.169922"/>
    </g>
   </g>
   <g id="text_13">
    <!-- inherits -->
    <g transform="translate(455.08275 324.028238) scale(0.09 -0.09)">
     <use xlink:href="#DejaVuSans-69"/>
     <use xlink:href="#DejaVuSans-6e" x="27.783203"/>
     <use xlink:href="#DejaVuSans-68" x="91.162109"/>
     <use xlink:href="#DejaVuSans-65" x="154.541016"/>
     <use xlink:href="#DejaVuSans-72" x="216.064453"/>
     <use xlink:href="#DejaVuSans-69" x="257.177734"/>
     <use xlink:href="#DejaVuSans-74" x="284.960938"/>
     <use xlink:href="#DejaVuSans-73" x="324.169922"/>
    </g>
   </g>
   <g id="text_14">
    <!-- inherits -->
    <g transform="translate(677.72475 174.340237) scale(0.09 -0.09)">
     <use xlink:href="#DejaVuSans-69"/>
     <use xlink:href="#DejaVuSans-6e" x="27.783203"/>
     <use xlink:href="#DejaVuSans-68" x="91.162109"/>
     <use xlink:href="#DejaVuSans-65" x="154.541016"/>
     <use xlink:href="#DejaVuSans-72" x="216.064453"/>
     <use xlink:href="#DejaVuSans-69" x="257.177734"/>
     <use xlink:href="#DejaVuSans-74" x="284.960938"/>
     <use xlink:href="#DejaVuSans-73" x="324.169922"/>
    </g>
   </g>
   <g id="text_15">
    <!-- 1 owns 0..* -->
    <g transform="translate(299.351375 224.512175) scale(0.1 -0.1)">
     <defs>
      <path id="DejaVuSans-31" d="M 794 531 
L 1825 531 
L 1825 4091 
L 703 3866 
L 703 4441 
L 1819 4666 
L 2450 4666 
L 2450 531 
L 3481 531 
L 3481 0 
L 794 0 
L 794 531 
z
" transform="scale(0.015625)"/>
      <path id="DejaVuSans-30" d="M 2034 4250 
Q 1547 4250 1301 3770 
Q 1056 3291 1056 2328 
Q 1056 1369 1301 889 
Q 1547 409 2034 409 
Q 2525 409 2770 889 
Q 3016 1369 3016 2328 
Q 3016 3291 2770 3770 
Q 2525 4250 2034 4250 
z
M 2034 4750 
Q 2819 4750 3233 4129 
Q 3647 3509 3647 2328 
Q 3647 1150 3233 529 
Q 2819 -91 2034 -91 
Q 1250 -91 836 529 
Q 422 1150 422 2328 
Q 422 3509 836 4129 
Q 1250 4750 2034 4750 
z
" transform="scale(0.015625)"/>
      <path id="DejaVuSans-2e" d="M 684 794 
L 1344 794 
L 1344 0 
L 684 0 
L 684 794 
z
" transform="scale(0.015625)"/>
      <path id="DejaVuSans-2a" d="M 3009 3897 
L 1888 3291 
L 3009 2681 
L 2828 2375 
L 1778 3009 
L 1778 1831 
L 1422 1831 
L 1422 3009 
L 372 2375 
L 191 2681 
L 1313 3291 
L 191 3897 
L 372 4206 
L 1422 3572 
L 1422 4750 
L 1778 4750 
L 1778 3572 
L 2828 4206 
L 3009 3897 
z
" transform="scale(0.015625)"/>
     </defs>
     <use xlink:href="#DejaVuSans-31"/>
     <use xlink:href="#DejaVuSans-20" x="63.623047"/>
     <use xlink:href="#DejaVuSans-6f" x="95.410156"/>
     <use xlink:href="#DejaVuSans-77" x="156.591797"/>
     <use xlink:href="#DejaVuSans-6e" x="238.378906"/>
     <use xlink:href="#DejaVuSans-73" x="301.757812"/>
     <use xlink:href="#DejaVuSans-20" x="353.857422"/>
     <use xlink:href="#DejaVuSans-30" x="385.644531"/>
     <use xlink:href="#DejaVuSans-2e" x="449.267578"/>
     <use xlink:href="#DejaVuSans-2e" x="481.054688"/>
     <use xlink:href="#DejaVuSans-2a" x="512.841797"/>
    </g>
   </g>
   <g id="text_16">
    <!-- 1 has 0..* -->
    <g transform="translate(541.70175 324.304175) scale(0.1 -0.1)">
     <use xlink:href="#DejaVuSans-31"/>
     <use xlink:href="#DejaVuSans-20" x="63.623047"/>
     <use xlink:href="#DejaVuSans-68" x="95.410156"/>
     <use xlink:href="#DejaVuSans-61" x="158.789062"/>
     <use xlink:href="#DejaVuSans-73" x="220.068359"/>
     <use xlink:href="#DejaVuSans-20" x="272.167969"/>
     <use xlink:href="#DejaVuSans-30" x="303.955078"/>
     <use xlink:href="#DejaVuSans-2e" x="367.578125"/>
     <use xlink:href="#DejaVuSans-2e" x="399.365234"/>
     <use xlink:href="#DejaVuSans-2a" x="431.152344"/>
    </g>
   </g>
   <g id="text_17">
    <!-- 1 writes 0..* -->
    <g transform="translate(228.74325 349.252175) scale(0.1 -0.1)">
     <use xlink:href="#DejaVuSans-31"/>
     <use xlink:href="#DejaVuSans-20" x="63.623047"/>
     <use xlink:href="#DejaVuSans-77" x="95.410156"/>
     <use xlink:href="#DejaVuSans-72" x="177.197266"/>
     <use xlink:href="#DejaVuSans-69" x="218.310547"/>
     <use xlink:href="#DejaVuSans-74" x="246.09375"/>
     <use xlink:href="#DejaVuSans-65" x="285.302734"/>
     <use xlink:href="#DejaVuSans-73" x="346.826172"/>
     <use xlink:href="#DejaVuSans-20" x="398.925781"/>
     <use xlink:href="#DejaVuSans-30" x="430.712891"/>
     <use xlink:href="#DejaVuSans-2e" x="494.335938"/>
     <use xlink:href="#DejaVuSans-2e" x="526.123047"/>
     <use xlink:href="#DejaVuSans-2a" x="557.910156"/>
    </g>
   </g>
   <g id="text_18">
    <!-- 0..*  0..* -->
    <g transform="translate(591.449281 239.480975) scale(0.1 -0.1)">
     <defs>
      <path id="DejaVuSans-2194" d="M 313 1866 
L 313 2147 
L 1541 3375 
L 1916 3000 
L 1188 2272 
L 4175 2272 
L 3447 3000 
L 3822 3375 
L 5050 2147 
L 5050 1866 
L 3822 638 
L 3447 1013 
L 4175 1741 
L 1188 1741 
L 1916 1013 
L 1541 638 
L 313 1866 
z
" transform="scale(0.015625)"/>
     </defs>
     <use xlink:href="#DejaVuSans-30"/>
     <use xlink:href="#DejaVuSans-2e" x="63.623047"/>
     <use xlink:href="#DejaVuSans-2e" x="95.410156"/>
     <use xlink:href="#DejaVuSans-2a" x="127.197266"/>
     <use xlink:href="#DejaVuSans-20" x="177.197266"/>
     <use xlink:href="#DejaVuSans-2194" x="208.984375"/>
     <use xlink:href="#DejaVuSans-20" x="292.773438"/>
     <use xlink:href="#DejaVuSans-30" x="324.560547"/>
     <use xlink:href="#DejaVuSans-2e" x="388.183594"/>
     <use xlink:href="#DejaVuSans-2e" x="419.970703"/>
     <use xlink:href="#DejaVuSans-2a" x="451.757812"/>
    </g>
   </g>
  </g>
 </g>
 <defs>
  <clipPath id="pd59f5a033a">
   <rect x="7.2" y="7.2" width="781.2" height="498.96"/>
  </clipPath>
 </defs>
</svg>
